<mxfile host="app.diagrams.net" modified="2024-04-01T18:22:11.767Z" agent="Mozilla/5.0 (Windows NT 10.0; Win64; x64) AppleWebKit/537.36 (KHTML, like Gecko) Chrome/123.0.0.0 Safari/537.36" etag="LAD_zg90GSz7Zw1DCrfP" version="24.2.1" type="device">
  <diagram name="Page-1" id="-ptw0isZGjGh-Fo7OOlw">
    <mxGraphModel dx="1709" dy="2096" grid="0" gridSize="10" guides="1" tooltips="1" connect="1" arrows="1" fold="1" page="1" pageScale="1" pageWidth="827" pageHeight="1169" background="none" math="0" shadow="1">
      <root>
        <mxCell id="0" />
        <mxCell id="1" parent="0" />
        <mxCell id="TLTUYnX1a0CbzAwYfwsS-1" value="" style="rounded=1;whiteSpace=wrap;html=1;" vertex="1" parent="1">
          <mxGeometry x="180" y="-1130" width="485" height="186" as="geometry" />
        </mxCell>
        <mxCell id="TLTUYnX1a0CbzAwYfwsS-2" value="Data Collection" style="rounded=1;whiteSpace=wrap;html=1;fillColor=#00FF00;" vertex="1" parent="1">
          <mxGeometry x="193" y="-1076" width="200" height="30" as="geometry" />
        </mxCell>
        <mxCell id="TLTUYnX1a0CbzAwYfwsS-3" value="Data Cleaning" style="rounded=1;whiteSpace=wrap;html=1;fillColor=#00FF00;" vertex="1" parent="1">
          <mxGeometry x="440" y="-1077" width="200" height="30" as="geometry" />
        </mxCell>
        <mxCell id="TLTUYnX1a0CbzAwYfwsS-4" value="Bivariate Analysis" style="rounded=1;whiteSpace=wrap;html=1;fillColor=#00FF00;" vertex="1" parent="1">
          <mxGeometry x="440" y="-1036" width="200" height="30" as="geometry" />
        </mxCell>
        <mxCell id="TLTUYnX1a0CbzAwYfwsS-6" value="Data Vizualisation" style="rounded=1;whiteSpace=wrap;html=1;fillColor=#00FF00;" vertex="1" parent="1">
          <mxGeometry x="270" y="-990" width="300" height="30" as="geometry" />
        </mxCell>
        <mxCell id="TLTUYnX1a0CbzAwYfwsS-9" value="&lt;b&gt;Exploratory Data Analysis&lt;/b&gt;" style="text;html=1;align=center;verticalAlign=middle;whiteSpace=wrap;rounded=0;fontSize=15;" vertex="1" parent="1">
          <mxGeometry x="320" y="-1117" width="200" height="30" as="geometry" />
        </mxCell>
        <mxCell id="TLTUYnX1a0CbzAwYfwsS-11" value="" style="rounded=1;whiteSpace=wrap;html=1;" vertex="1" parent="1">
          <mxGeometry x="177.5" y="-909" width="485" height="140" as="geometry" />
        </mxCell>
        <mxCell id="TLTUYnX1a0CbzAwYfwsS-12" value="&lt;b&gt;Preprocessing&lt;/b&gt;" style="text;html=1;align=center;verticalAlign=middle;whiteSpace=wrap;rounded=0;fontSize=15;" vertex="1" parent="1">
          <mxGeometry x="320" y="-909" width="200" height="50" as="geometry" />
        </mxCell>
        <mxCell id="TLTUYnX1a0CbzAwYfwsS-13" value="Feature Scaling" style="rounded=1;whiteSpace=wrap;html=1;fillColor=#00FFFF;" vertex="1" parent="1">
          <mxGeometry x="210" y="-861" width="200" height="30" as="geometry" />
        </mxCell>
        <mxCell id="TLTUYnX1a0CbzAwYfwsS-14" value="Dimensionality Reduction" style="rounded=1;whiteSpace=wrap;html=1;fillColor=#00FFFF;" vertex="1" parent="1">
          <mxGeometry x="440" y="-861" width="200" height="30" as="geometry" />
        </mxCell>
        <mxCell id="TLTUYnX1a0CbzAwYfwsS-16" value="Converting multiclass problem to binary" style="rounded=1;whiteSpace=wrap;html=1;fillColor=#00FFFF;" vertex="1" parent="1">
          <mxGeometry x="440" y="-821" width="200" height="35" as="geometry" />
        </mxCell>
        <mxCell id="TLTUYnX1a0CbzAwYfwsS-17" value="Class Balancing (SMOTE)" style="rounded=1;whiteSpace=wrap;html=1;fillColor=#00FFFF;" vertex="1" parent="1">
          <mxGeometry x="210" y="-821" width="200" height="35" as="geometry" />
        </mxCell>
        <mxCell id="TLTUYnX1a0CbzAwYfwsS-19" value="" style="rounded=1;whiteSpace=wrap;html=1;" vertex="1" parent="1">
          <mxGeometry x="177.5" y="-735" width="485" height="210" as="geometry" />
        </mxCell>
        <mxCell id="TLTUYnX1a0CbzAwYfwsS-20" value="&lt;b&gt;Baseline modelling&lt;/b&gt;" style="text;html=1;align=center;verticalAlign=middle;whiteSpace=wrap;rounded=0;fontSize=15;" vertex="1" parent="1">
          <mxGeometry x="322.5" y="-732" width="200" height="30" as="geometry" />
        </mxCell>
        <mxCell id="TLTUYnX1a0CbzAwYfwsS-22" value="" style="rounded=1;whiteSpace=wrap;html=1;" vertex="1" parent="1">
          <mxGeometry x="183" y="-491" width="485" height="187" as="geometry" />
        </mxCell>
        <mxCell id="TLTUYnX1a0CbzAwYfwsS-23" value="&lt;b&gt;Advanced modelling&lt;/b&gt;" style="text;html=1;align=center;verticalAlign=middle;whiteSpace=wrap;rounded=0;fontSize=15;" vertex="1" parent="1">
          <mxGeometry x="327.5" y="-482" width="200" height="30" as="geometry" />
        </mxCell>
        <mxCell id="TLTUYnX1a0CbzAwYfwsS-24" value="&lt;b&gt;ML models:&lt;/b&gt;&lt;div&gt;&lt;b&gt;&lt;br&gt;&lt;/b&gt;&lt;div style=&quot;text-align: left;&quot;&gt;1. LogReg&lt;/div&gt;&lt;div style=&quot;text-align: left;&quot;&gt;2. Decision Tree&lt;/div&gt;&lt;div style=&quot;text-align: left;&quot;&gt;3. XGBoost&lt;/div&gt;&lt;div style=&quot;text-align: left;&quot;&gt;4. Neural Network&lt;/div&gt;&lt;/div&gt;" style="rounded=1;whiteSpace=wrap;html=1;fillColor=#FFB570;" vertex="1" parent="1">
          <mxGeometry x="202" y="-451" width="150" height="130" as="geometry" />
        </mxCell>
        <mxCell id="TLTUYnX1a0CbzAwYfwsS-26" value="Hyperparameter Tuning" style="rounded=1;whiteSpace=wrap;html=1;fillColor=#FF9999;" vertex="1" parent="1">
          <mxGeometry x="403" y="-444" width="230" height="30" as="geometry" />
        </mxCell>
        <mxCell id="TLTUYnX1a0CbzAwYfwsS-27" value="Cross Validation" style="rounded=1;whiteSpace=wrap;html=1;fillColor=#FF9999;" vertex="1" parent="1">
          <mxGeometry x="403" y="-401" width="230" height="30" as="geometry" />
        </mxCell>
        <mxCell id="TLTUYnX1a0CbzAwYfwsS-28" value="Performance Evaluation" style="rounded=1;whiteSpace=wrap;html=1;fillColor=#FF9999;" vertex="1" parent="1">
          <mxGeometry x="403" y="-357" width="230" height="30" as="geometry" />
        </mxCell>
        <mxCell id="TLTUYnX1a0CbzAwYfwsS-29" value="Why Baseline Model?" style="rounded=1;whiteSpace=wrap;html=1;" vertex="1" parent="1">
          <mxGeometry x="388" y="-650" width="100" height="60" as="geometry" />
        </mxCell>
        <mxCell id="TLTUYnX1a0CbzAwYfwsS-31" value="Faster Model Iteration" style="rounded=1;whiteSpace=wrap;html=1;fillColor=#d5e8d4;strokeColor=#82b366;" vertex="1" parent="1">
          <mxGeometry x="527.5" y="-641" width="100" height="40" as="geometry" />
        </mxCell>
        <mxCell id="TLTUYnX1a0CbzAwYfwsS-32" value="Performance Benchmark" style="rounded=1;whiteSpace=wrap;html=1;fillColor=#e1d5e7;strokeColor=#9673a6;" vertex="1" parent="1">
          <mxGeometry x="529" y="-583" width="100" height="40" as="geometry" />
        </mxCell>
        <mxCell id="TLTUYnX1a0CbzAwYfwsS-34" value="" style="rounded=1;whiteSpace=wrap;html=1;fillColor=#FFB570;" vertex="1" parent="1">
          <mxGeometry x="197" y="-693" width="157" height="153" as="geometry" />
        </mxCell>
        <mxCell id="TLTUYnX1a0CbzAwYfwsS-38" value="&lt;div&gt;&lt;span style=&quot;background-color: initial;&quot;&gt;&lt;b&gt;LogReg:&lt;/b&gt;&lt;/span&gt;&lt;/div&gt;&lt;div style=&quot;text-align: left;&quot;&gt;&lt;ol&gt;&lt;li&gt;No hyperparameter tuning as LogReg showed good results&lt;/li&gt;&lt;li&gt;Accuracy, Recall, F1-score, ROC curve and AUC score as evaluation framework&lt;/li&gt;&lt;/ol&gt;&lt;/div&gt;" style="text;html=1;align=center;verticalAlign=middle;whiteSpace=wrap;rounded=0;" vertex="1" parent="1">
          <mxGeometry x="188" y="-663" width="166" height="110" as="geometry" />
        </mxCell>
        <mxCell id="TLTUYnX1a0CbzAwYfwsS-39" value="" style="endArrow=none;html=1;rounded=0;entryX=0;entryY=0.5;entryDx=0;entryDy=0;" edge="1" parent="1">
          <mxGeometry width="50" height="50" relative="1" as="geometry">
            <mxPoint x="488" y="-613" as="sourcePoint" />
            <mxPoint x="527.5" y="-682" as="targetPoint" />
          </mxGeometry>
        </mxCell>
        <mxCell id="TLTUYnX1a0CbzAwYfwsS-40" value="" style="endArrow=none;html=1;rounded=0;entryX=0;entryY=0.5;entryDx=0;entryDy=0;" edge="1" parent="1" target="TLTUYnX1a0CbzAwYfwsS-31">
          <mxGeometry width="50" height="50" relative="1" as="geometry">
            <mxPoint x="488" y="-613" as="sourcePoint" />
            <mxPoint x="538" y="-663" as="targetPoint" />
          </mxGeometry>
        </mxCell>
        <mxCell id="TLTUYnX1a0CbzAwYfwsS-41" value="" style="endArrow=none;html=1;rounded=0;entryX=0;entryY=0.5;entryDx=0;entryDy=0;" edge="1" parent="1" target="TLTUYnX1a0CbzAwYfwsS-32">
          <mxGeometry width="50" height="50" relative="1" as="geometry">
            <mxPoint x="488" y="-613" as="sourcePoint" />
            <mxPoint x="538" y="-663" as="targetPoint" />
          </mxGeometry>
        </mxCell>
        <mxCell id="TLTUYnX1a0CbzAwYfwsS-5" value="Univariate Analysis" style="rounded=1;whiteSpace=wrap;html=1;fillColor=#00FF00;" vertex="1" parent="1">
          <mxGeometry x="195" y="-1035" width="200" height="30" as="geometry" />
        </mxCell>
        <mxCell id="TLTUYnX1a0CbzAwYfwsS-43" value="Interpretation" style="rounded=1;whiteSpace=wrap;html=1;fillColor=#d5e8d4;strokeColor=#82b366;" vertex="1" parent="1">
          <mxGeometry x="528" y="-703" width="100" height="40" as="geometry" />
        </mxCell>
        <mxCell id="TLTUYnX1a0CbzAwYfwsS-45" value="" style="shape=flexArrow;endArrow=classic;html=1;rounded=0;" edge="1" parent="1">
          <mxGeometry width="50" height="50" relative="1" as="geometry">
            <mxPoint x="419.5" y="-944" as="sourcePoint" />
            <mxPoint x="419.5" y="-910" as="targetPoint" />
          </mxGeometry>
        </mxCell>
        <mxCell id="TLTUYnX1a0CbzAwYfwsS-52" value="" style="shape=flexArrow;endArrow=classic;html=1;rounded=0;" edge="1" parent="1">
          <mxGeometry width="50" height="50" relative="1" as="geometry">
            <mxPoint x="425" y="-525" as="sourcePoint" />
            <mxPoint x="425" y="-491" as="targetPoint" />
          </mxGeometry>
        </mxCell>
        <mxCell id="TLTUYnX1a0CbzAwYfwsS-54" value="" style="shape=flexArrow;endArrow=classic;html=1;rounded=0;" edge="1" parent="1">
          <mxGeometry width="50" height="50" relative="1" as="geometry">
            <mxPoint x="422" y="-769" as="sourcePoint" />
            <mxPoint x="422" y="-735" as="targetPoint" />
          </mxGeometry>
        </mxCell>
      </root>
    </mxGraphModel>
  </diagram>
</mxfile>
